<?xml version="1.0" encoding="UTF-8" standalone="no"?>
<svg width="146px" height="60px" viewBox="0 0 146 60" version="1.1" xmlns="http://www.w3.org/2000/svg" xmlns:xlink="http://www.w3.org/1999/xlink">
    <!-- Generator: Sketch 50.2 (55047) - http://www.bohemiancoding.com/sketch -->
    <title>Artboard</title>
    <desc>Created with Sketch.</desc>
    <defs></defs>
    <g id="Artboard" stroke="none" stroke-width="1" fill="none" fill-rule="evenodd">
        <g id="Group-2" fill="#004078">
            <path d="M3.48837209,47.4418605 C8.63219721,50.9075714 10.5935711,53.0546921 12.1765581,55.226692 C7.69299748,57.0463348 5.85814486,60 5.85814486,60 L23.0232558,60 C23.0232558,60 19.9143635,49.1093361 3.48837209,47.4418605" id="Fill-14"></path>
            <path d="M10.9806737,18.4302984 C9.86716217,18.1207355 8.72959693,18.8338582 8.43977886,20.0226049 C8.14996079,21.2119782 8.81759836,22.427044 9.93110988,22.736607 C11.0440347,23.0461699 15.4388265,24.1716254 20.2325581,18.1395349 C14.7183881,20.1034422 12.0935985,18.7398614 10.9806737,18.4302984" id="Fill-15"></path>
            <path d="M145.813953,29.9285761 L145.813953,40.2943839 L144.05525,40.2943839 C142.73086,40.2943839 142.124965,40.0094376 141.837209,38.8131337 C140.74219,40.0094376 139.30103,40.4651163 137.456535,40.4651163 C134.6326,40.4651163 132.55814,38.9273478 132.55814,35.9654361 C132.55814,32.8333808 135.093724,31.2956123 138.581343,31.2956123 C139.819943,31.2956123 140.6844,31.4092376 141.606052,31.6370769 L141.606052,30.2135225 C141.606052,28.8464863 140.857173,28.1347091 138.839906,28.1347091 C137.25457,28.1347091 135.93018,28.6186469 134.920951,29.302165 L133.739545,29.302165 L133.739545,26.3691012 C135.18011,25.714431 136.938218,25.1162791 139.502995,25.1162791 C143.681108,25.1162791 145.813953,26.4827265 145.813953,29.9285761 Z M141.088926,33.5292622 C140.425837,33.4156369 139.706151,33.3585299 138.927484,33.3585299 C137.227761,33.3585299 136.132741,33.9566818 136.132741,35.4084954 C136.132741,36.8608977 137.083585,37.5161567 138.495553,37.5161567 C139.533379,37.5161567 140.397836,37.0033709 141.088926,36.3769599 L141.088926,33.5292622 Z" id="Combined-Shape"></path>
            <path d="M126.331737,25.1162791 C124.279593,25.1162791 122.169267,25.9223892 120.732887,26.9589016 C120.556521,25.66341 120.14682,25.3466813 119.413478,25.3466813 L116.511628,25.3466813 L116.511628,40.4651163 L120.790463,40.4651163 L120.790463,29.1765975 C121.758353,28.8306965 122.96079,28.4853908 124.279593,28.4853908 C125.598396,28.4853908 126.184463,28.9176183 126.184463,30.4143397 L126.184463,40.4651163 L130.465116,40.4651163 L130.465116,29.3492503 C130.465116,25.9515616 128.559641,25.1162791 126.331737,25.1162791" id="Fill-3"></path>
            <path d="M114.418605,32.4495667 C114.418605,32.9608224 114.361731,33.58667 114.361731,33.7288813 L104.718943,33.7288813 C104.917709,36.7129694 106.336042,37.5374427 108.632697,37.5374427 C110.30667,37.5374427 111.610669,36.9973921 112.575769,36.2869229 L113.851037,36.2869229 L113.851037,39.0153831 C112.6602,39.697645 110.9874,40.4651163 108.009428,40.4651163 C103.13116,40.4651163 100.465116,37.5662375 100.465116,32.8756131 C100.465116,28.0721599 103.58498,25.1162791 107.725644,25.1162791 C112.093219,25.1162791 114.418605,27.5321093 114.418605,32.4495667 Z M110.714756,30.9633992 C110.629152,28.3201483 109.721513,27.4668801 108.105586,27.4668801 C106.65911,27.4668801 105.468273,28.1779369 105.155759,30.9633992 L110.714756,30.9633992 Z" id="Combined-Shape"></path>
            <path d="M94.7539148,27.0854757 C94.6135826,25.5796899 94.1908392,25.2611698 93.4868492,25.2611698 L90.6976744,25.2611698 L90.6976744,40.4651163 L94.8109793,40.4651163 L94.8109793,29.4887458 C95.5994016,29.0546724 97.0353316,28.5912616 99.0634518,28.5912616 L99.7674419,28.5912616 L99.7674419,25.2611698 C99.4856129,25.1737564 99.175834,25.1162791 98.8666374,25.1162791 C97.0353316,25.1162791 95.6838338,26.0718394 94.7539148,27.0854757" id="Fill-6"></path>
            <path d="M86.177713,19.5348837 C84.8264507,19.5348837 83.7209302,20.6375964 83.7209302,21.9923763 C83.7209302,23.3471561 84.8264507,24.4186047 86.177713,24.4186047 C87.5289753,24.4186047 88.6046512,23.3471561 88.6046512,21.9923763 C88.6046512,20.6375964 87.5289753,19.5348837 86.177713,19.5348837" id="Fill-7"></path>
            <path d="M86.3296517,25.1162791 L83.7209302,25.1162791 L83.7209302,40.4651163 L87.9069767,40.4651163 L87.9069767,27.9226369 C87.9069767,25.5841061 87.7060323,25.1162791 86.3296517,25.1162791" id="Fill-8"></path>
            <path d="M75.3720523,28.3426405 C73.0082261,27.7490773 71.6820755,27.268852 71.6820755,25.6862117 C71.6820755,24.075529 72.8633926,23.3978388 75.0549682,23.3978388 C76.7846262,23.3978388 78.0243535,23.9627754 79.0906382,24.7257611 L80.5038081,24.7257611 L80.5038081,21.5324381 C79.2354717,20.7694524 77.2453518,20.2325581 74.8821216,20.2325581 C70.7594323,20.2325581 67.8192521,22.1540436 67.8192521,25.9975987 C67.8192521,29.3317177 69.519705,30.8290625 73.2388869,31.902851 C75.5454949,32.5817096 77.5630319,32.7791745 77.5630319,34.8987091 C77.5630319,36.4246805 76.3817148,37.3284622 73.9308693,37.3284622 C71.5670431,37.3284622 70.0388408,36.4527228 69.1454027,35.5203146 L67.6744186,35.5203146 L67.6744186,38.8830602 C69.3754675,39.8435108 71.1921448,40.4651163 74.0751068,40.4651163 C79.03342,40.4651163 81.627907,38.289497 81.627907,34.4459419 C81.627907,30.8010202 79.7826206,29.4450555 75.3720523,28.3426405" id="Fill-9"></path>
            <path d="M60,29.9285761 L60,40.2943839 L58.2418128,40.2943839 C56.9173634,40.2943839 56.3114412,40.0094376 56.0230771,38.8131337 C54.9280083,40.0094376 53.4873791,40.4651163 51.6428018,40.4651163 C48.8187397,40.4651163 46.744186,38.9273478 46.744186,35.9654361 C46.744186,32.8333808 49.279884,31.2956123 52.7676603,31.2956123 C54.0063154,31.2956123 54.8708121,31.4092376 55.7925049,31.6370769 L55.7925049,30.2135225 C55.7925049,28.8464863 55.0435922,28.1347091 53.0262348,28.1347091 C51.4408278,28.1347091 50.1163784,28.6186469 49.1071038,29.302165 L47.9256449,29.302165 L47.9256449,26.3691012 C49.3662741,25.714431 51.1244613,25.1162791 53.6893532,25.1162791 C57.8676544,25.1162791 60,26.4827265 60,29.9285761 Z M55.8711497,33.5292622 C55.2080313,33.4156369 54.4883125,33.3585299 53.7096102,33.3585299 C52.0098107,33.3585299 50.9147419,33.9566818 50.9147419,35.4084954 C50.9147419,36.8608977 51.8656287,37.5161567 53.2776597,37.5161567 C54.3155323,37.5161567 55.180029,37.0033709 55.8711497,36.3769599 L55.8711497,33.5292622 Z" id="Combined-Shape"></path>
            <path d="M44.6511628,23.2184085 L44.6511628,40.4651163 L40.4651163,40.4651163 L40.4651163,20.9302326 L43.0165718,20.9302326 C44.4217985,20.9302326 44.6511628,21.2654394 44.6511628,23.2184085" id="Fill-12"></path>
            <path d="M27.3117787,27.0177277 C27.3117787,23.5750252 30.8183894,18.6419094 30.8183894,16.1094947 C30.8183894,15.7395257 30.7227062,15.4017533 30.5626436,15.1073001 C30.5573279,15.0961776 30.5520122,15.0850551 30.5461058,15.074518 C30.5313399,15.0475899 30.514802,15.0224179 30.4988549,14.9966606 C30.1533323,14.4311699 29.5561985,14.0342728 28.8598377,13.9646109 C28.7901426,13.9575861 28.7210381,13.9534884 28.6513429,13.9534884 C28.6483897,13.9534884 28.6460272,13.9540738 28.643074,13.9540738 C28.6418927,13.9540738 28.6401208,13.9534884 28.6383489,13.9534884 C28.63008,13.9534884 28.6218111,13.9546592 28.6129515,13.9552446 C23.9664118,14.0085154 18.8225559,23.907529 12.6616234,23.907529 C9.21053257,23.907529 6.97674419,22.6372239 6.97674419,22.6372239 C8.41907926,24.9682631 10.8666782,28.800838 18.3648124,25.8129867 L18.358906,25.8164991 L19.5868399,28.7089311 C16.7364267,30.4604302 15.9272543,32.0538728 15.9272543,34.8865947 C15.9272543,43.2717792 29.0021812,49.3698292 24.351507,60 C39.8320976,45.7479961 27.3117787,33.7585403 27.3117787,27.0177277" id="Fill-13"></path>
            <path d="M31.3916924,6.53423972 C31.2704082,2.84447425 28.1247864,-0.0594206248 24.3799132,0.0594901323 C22.5373496,0.118945511 21.3024017,0.620489892 20.1086786,1.10614026 C18.9161504,1.59179063 17.6823975,2.09333501 15.8404313,2.15161306 C14.0008549,2.21106844 12.7324494,1.63594066 11.5052686,1.07965024 C10.2751004,0.522182484 9.00191522,-0.0547112879 7.15337698,0.00415542356 C4.71514667,0.0818594827 3.50349976,1.32689043 3.49155058,1.33925244 L3.45152082,1.38222514 L3.50947435,1.36986313 C7.49930576,0.522182484 9.39623818,2.30466651 11.0691235,3.87876237 C11.9378289,4.69583233 12.7694919,5.47817092 13.8090706,5.75719913 C12.9463397,5.61415302 12.0065367,5.27508077 11.0273013,4.92129183 C9.35083129,4.31555337 7.45031411,3.62975618 5.38788554,3.6956869 C2.98968499,3.77221362 1.77923299,5.02371991 1.76728381,5.03608192 L1.72725406,5.07846595 L1.78461013,5.06669261 C5.57309784,4.25904133 7.66121715,5.81135651 9.67943376,7.31186898 C10.740521,8.10068292 11.7490318,8.85064482 12.9636661,9.23504445 C12.1702405,9.06786299 11.2818189,8.82709814 10.3503803,8.57514861 C8.18817602,7.98942483 5.73799653,7.32599699 3.70424599,7.39133904 C1.26541823,7.4690431 0.0549662308,8.71348538 0.0430170502,8.72643606 L0,8.77176343 L0.0603433621,8.75645808 C1.13995183,8.49214655 2.17355595,8.44269851 3.18744393,8.60693663 C5.33112693,9.05667831 7.19997878,11.0004571 9.38309408,12.567489 C8.20908708,12.6139937 6.91021115,13.0313587 5.57190292,14.1050875 C10.5045247,12.6281217 10.6748005,16.0465116 17.0777689,16.0465116 C20.3608063,16.0465116 22.0976197,14.4429824 22.7482526,13.5941244 C21.7265977,13.1614541 20.8841804,12.3973642 20.3608063,11.4390141 L20.3548317,11.4313615 L20.3566241,11.4307728 C20.0112928,10.795601 19.8069618,10.0756611 19.7818685,9.3109825 C19.7812711,9.30980517 19.7812711,9.30862784 19.7812711,9.3074505 L19.7812711,9.30686183 C19.7812711,9.3056845 19.7812711,9.30450717 19.7812711,9.3039185 C19.7812711,9.29979783 19.7812711,9.29626583 19.7812711,9.29214516 C19.7800761,9.24564045 19.7776863,9.19913575 19.7776863,9.15263105 C19.7776863,9.12790703 19.7794787,9.10318301 19.7794787,9.07845899 C19.7800761,9.06904032 19.7800761,9.05903298 19.7800761,9.04902564 C19.7926228,8.4786072 19.9049451,7.93232412 20.1009116,7.42665907 C20.1021066,7.42312707 20.1033015,7.4190064 20.1050938,7.41488573 C20.1068862,7.41017639 20.1092761,7.40605572 20.1110684,7.40134638 C20.1110684,7.40016905 20.1116659,7.40016905 20.1122634,7.39840305 C20.7384004,5.81606585 22.1854462,4.63755428 23.9389884,4.37559742 C24.0059039,4.36500141 24.0740142,4.35734874 24.1421245,4.35028473 C24.157061,4.34851873 24.1714,4.34616406 24.1863365,4.34498673 C24.2568367,4.33733405 24.3285317,4.33262472 24.4002268,4.32850405 C24.4139684,4.32791538 24.4277099,4.32673805 24.4414515,4.32614938 C24.4677397,4.32497204 24.4934304,4.32202871 24.5197186,4.32144004 C24.5687103,4.31967404 24.6171044,4.32026271 24.6654986,4.32026271 C24.6708758,4.32026271 24.6762529,4.32026271 24.6822275,4.32026271 C24.6858122,4.32026271 24.689397,4.32026271 24.6929817,4.32026271 C24.7527276,4.32085137 24.8124736,4.32261738 24.8722195,4.32497204 C24.9032873,4.32614938 24.9343552,4.32673805 24.9654231,4.32850405 C24.9737875,4.32909271 24.9815545,4.32909271 24.9893214,4.32968138 C25.0185969,4.33144738 25.047275,4.33497938 25.075953,4.33733405 C25.120165,4.34027739 25.1643769,4.34380939 25.207394,4.34793006 C25.2444364,4.35205073 25.280284,4.35676007 25.316729,4.36205807 C25.3591486,4.36676741 25.4021656,4.37206541 25.4445852,4.37854075 C25.4798353,4.38383876 25.513293,4.39031409 25.5479456,4.39678943 C25.7134418,4.42563412 25.8759506,4.46272015 26.0348747,4.50804752 C26.0647477,4.51628886 26.0952181,4.52394153 26.125091,4.53277154 C26.1675106,4.54572221 26.2087353,4.56043889 26.2505574,4.57397823 C26.2822228,4.58457424 26.3144856,4.59458158 26.3461509,4.60576626 C26.3861806,4.61989427 26.4256129,4.63578828 26.4656427,4.65109363 C26.4979055,4.66345563 26.5301683,4.67522898 26.5630285,4.68876832 C26.6012659,4.70407367 26.6383083,4.72114501 26.6759483,4.73762769 C26.7088085,4.75234437 26.7422662,4.76647238 26.7751265,4.78177772 C26.810974,4.7982604 26.8468216,4.81650908 26.8820716,4.83358043 C26.9155293,4.85006311 26.948987,4.86713446 26.9824448,4.8842058 C27.0159025,4.90186582 27.0493602,4.9201145 27.0828179,4.93895184 C27.116873,4.95778919 27.1509282,4.97721521 27.1843859,4.99664122 C27.2154538,5.0148899 27.2471191,5.03372725 27.2775895,5.0525646 C27.3128396,5.07434528 27.3474922,5.09671463 27.3821448,5.11849531 C27.4102254,5.13733266 27.4389035,5.15617001 27.4663866,5.17500736 C27.5028316,5.19973138 27.5386791,5.22504406 27.5745267,5.25094542 C27.5996199,5.26860543 27.6247132,5.28685411 27.649209,5.30569146 C27.6874464,5.33394748 27.7250863,5.36338083 27.7621288,5.39281419 C27.7830399,5.40988554 27.8051458,5.42695688 27.8266544,5.4446169 C27.8660867,5.47758225 27.905519,5.51113628 27.9443538,5.54527897 C27.9622776,5.56058432 27.9790064,5.57588966 27.9963327,5.59119501 C28.0399472,5.63004704 28.0811719,5.66948773 28.122994,5.7095171 C28.1355407,5.72187911 28.1474899,5.73365245 28.1600365,5.74542579 C28.2066383,5.79193049 28.2526427,5.83902386 28.2974521,5.88729457 C28.3040241,5.89435857 28.3105962,5.90083391 28.3165708,5.90789791 C28.6828132,6.30583688 28.983335,6.76440857 29.1996152,7.26771895 C29.2020051,7.27360562 29.2043949,7.27949229 29.2067847,7.2847903 C29.2342678,7.34954368 29.260556,7.41429706 29.2850519,7.48022778 C29.2898315,7.49317845 29.2940137,7.50612913 29.2987934,7.51849114 C29.3203019,7.57735785 29.3406155,7.63681323 29.3597342,7.69744594 C29.3657088,7.71569462 29.371086,7.7339433 29.3770605,7.75160332 C29.3937894,7.80693803 29.4099208,7.86227274 29.4248573,7.91878478 C29.4308319,7.94115413 29.436209,7.96352348 29.4421836,7.9864815 C29.4553277,8.03887287 29.4678743,8.09126424 29.479226,8.14424428 C29.4846032,8.17014564 29.4899803,8.19604699 29.4953574,8.22253701 C29.5049168,8.27257371 29.5138787,8.32261042 29.5228406,8.37382446 C29.5270228,8.40266915 29.5318024,8.43092517 29.5359846,8.46035852 C29.5431542,8.50862923 29.5491287,8.55807726 29.5551033,8.6075253 C29.5580906,8.63813599 29.5616754,8.66874668 29.5646627,8.69935737 C29.5688449,8.74821674 29.5730271,8.79766478 29.5760144,8.84711282 C29.5784042,8.87772351 29.5801966,8.90892286 29.5813915,8.94012222 C29.581989,8.9583709 29.5837814,8.97603092 29.5849763,8.9942796 C29.5855737,9.02724495 29.5849763,9.06021031 29.5855737,9.09317567 C29.5855737,9.11319035 29.5867687,9.13261637 29.5867687,9.15263105 C29.5867687,9.16263839 29.5861712,9.17264573 29.5861712,9.18265307 C29.5861712,9.23445578 29.5843788,9.28566982 29.581989,9.33747252 C29.5807941,9.36749455 29.5801966,9.39751657 29.5784042,9.42812726 C29.5754169,9.47404329 29.5718322,9.51995933 29.56765,9.56587536 C29.5646627,9.60119539 29.5622728,9.63769275 29.5580906,9.67360145 C29.5545059,9.7065668 29.5497262,9.7389435 29.5449465,9.77190885 C29.5389719,9.82076822 29.5329974,9.8696276 29.5252304,9.9178983 C29.5240355,9.92555097 29.5222431,9.93320364 29.5210482,9.94085632 C29.3722809,10.832687 28.9755681,11.6426929 28.4026049,12.2990568 L28.473105,12.2507861 C30.376012,10.9480657 31.4669722,8.81061546 31.3916924,6.53423972" id="Fill-17"></path>
        </g>
    </g>
</svg>